<?xml version="1.0" encoding="UTF-8"?><svg id="Layer_1" xmlns="http://www.w3.org/2000/svg" viewBox="12.3 9 55.3 32.2"><defs><style>.cls-1{fill:#12768c;}</style></defs><path id="One_Color_Outline" class="cls-1" d="M19.9,9c-2.4,0-4.5.8-5.7,2.3-1.6,1.9-1.8,4.6-1.8,7.3v11.4c0,3.3,0,6.4,1.8,8.7,1.2,1.6,3.8,2.6,6.6,2.5,2.9-.1,5.5-1.3,7.2-3.1v-10.1h-6v3.6c0,1.1,0,2.4-.6,3.1-.3.3-.6.4-1,.4s-.8-.1-1-.4c-.7-.7-.7-2-.6-3.1v-13.1c0-1.1,0-2.4.6-3.1.3-.3.6-.4,1-.4s.8.1,1,.4c.7.7.7,2,.6,3.1v1.9h6v-8.2c-2.1-1.9-4.8-3.1-7.4-3.2h-.7ZM30.5,38c1.9,2,4.5,3.1,7.8,3.1,3,0,5.1-.9,6.5-2.8,1.2-1.7,1.7-4.1,1.7-7.4v-.1c0-1.5-.2-3-.5-4.3h0c-.3-1.2-.8-2-1.6-2.8-1.4-1.3-3.6-2.1-5.2-2.7-1.1-.4-1.8-.9-2.2-1.4-.4-.6-.5-1.3-.5-2,0-1.5.7-2.5,1.8-2.5,1.8,0,1.8,2.4,1.8,3.8v.1h5.7v-6.9c-2.3-2.2-4.7-3.1-7.9-3.1-2.6,0-4.3.6-5.5,1.8-1.8,1.9-2.1,3.6-2.2,6.8v.7c0,6.5,2,7.9,6.4,9.4.1,0,.2.1.4.1.9.3,1.7.6,2.3,1.2.7.7,1,1.7,1,3.2,0,1.4-.6,2.8-1.8,2.8-.7,0-1.3-.5-1.6-1.3-.2-.7-.2-1.9-.2-3.6v-.1h-6v8h-.2ZM48.3,40.5h17.5v-14.6h-5.4v4.8c0,1,0,1.9-.2,2.6-.3.8-.9,1.2-1.9,1.2h-3v-16.9c0-1.1,0-2.2.8-3v-5h-7.7v5c.8.8.8,1.9.8,3v14.8c0,1.1,0,2.2-.8,3v5.1h-.1ZM58,18.9q0,.1.1.2s0,.1-.1.2v-.4ZM63.9,14.6c.9.2,1.7.6,2.3,1.3h-.2c-.7-.7-1.7-1-2-1.1q-.1-.1-.1-.2ZM67.4,18.2s0-.1,0,0v-.4c0-.1-.1-.2-.1-.2h0c-.1-.3-.2-.6-.4-.8-.1-.2-.2-.4-.4-.5h-.3c.1.1.1.3.1.6v.3c.2.1.7.5,1,1.3,0-.2.1-.2.1-.3ZM63.8,15h0c-.1,0-.3,0-.4.1-.2.1-.4.2-.5.2l.4,1.1c1,.3,1.5.8,1.7.9l1-.3v-.3c0-.3-.2-.6-.2-.6h0l-.1-.1c-.7-.7-1.7-.9-1.9-1h0ZM61.9,17.7v.1c0,.1.1.3.2.5.1.3.4.7.6,1h.5c.3,0,.8,0,1.3-.1h0s.1-.1.1-.2c.1-.3.1-.5.1-.8,0-.2,0-.4-.1-.5h0l-.1-.1c-.1-.1-.2-.2-.3-.2-.3-.2-.8-.4-1.3-.6h-.1c-.1,0-.2.1-.3.2,0,.1-.3.4-.6.7ZM60.7,21.2h0ZM62.1,21.5h0c.1.3.3.6.5.9l.1.1h.1c.1,0,.3.1.5.1.4,0,.8-.1,1.2-.3h0l.1-.1c.1-.1.2-.2.3-.3.2-.3.4-.7.4-1.2-.2-.6-.6-1-.7-1.1-.8.1-1.6.1-1.8.1l-1,1.4v.1c.1,0,.2.1.3.3ZM61.6,20.8l.9-1.4c-.2-.2-.4-.6-.6-1-.1-.3-.2-.5-.3-.6-.4,0-.9-.1-1.1-.1h-.3c-.2.3-.4.5-.6.8h0c-.3.4-.4.7-.4.8v.1c0,.1.1.3.1.4.1.4.3.7.5.9h0s.1,0,.2.1h.1c.2,0,.3.1.5.1h0c.4.1.7,0,1-.1ZM66.2,22.7l.2-.2c.2-.2.3-.4.3-.4,0,0,0-.1.1-.1.1-.2.1-.3.1-.5,0-.3-.1-.6-.2-.7-.2.1-.4.1-.6.1h0c-.2,0-.4,0-.5-.1-.1.8-.6,1.4-.8,1.6.2.3.4.5.5.6.3,0,.7-.2.9-.3h0ZM58.9,22l.1.1c.1,0,.2.1.4.1h.1v-.6c0-.2,0-.5.1-.7-.2-.2-.3-.5-.5-.9-.1-.2-.1-.4-.2-.5l-.6-.2c0,.1-.1.1-.1.2-.1.2-.1.3-.2.4,0,.4.1.7.3,1.1s.3.7.6,1ZM65.5,23.3h-.2s0,.1-.1.1c.1,0,.2-.1.3-.1ZM62.1,23s.1-.1,0,0c.1-.2.2-.3.3-.4h0c-.1-.1-.2-.2-.2-.3-.1-.2-.2-.4-.3-.6s-.2-.4-.2-.5c-.3.1-.6.1-.9.1h-.1c-.3,0-.6-.1-.7-.2v.1c0,.1-.1.3-.1.5v.5h0v.2c.1.1.1.2.2.2h0c.7.7,1.3.8,1.4.8h.1c.1-.1.3-.2.5-.4-.1.1,0,0,0,0ZM67.1,18.7h0c-.2-1-.8-1.3-1-1.4l-1,.3h0v.1h0v.3c0,.5-.2.9-.3,1.2.2.2.5.6.7,1.2h.1c.1,0,.2.1.4.1s.4,0,.6-.1c.4-.7.5-1.3.5-1.7,0,.1,0,0,0,0ZM58.2,18.1v.2h0v.1c0,.1,0,.2.1.3,0,.1.1.2.1.2l.6.2c.1-.3.3-.8,1-1.6-.1-.1-.1-.2-.2-.4,0,0,0-.1-.1-.1-.1-.2-.1-.4-.2-.5h-.1c-.2,0-.6.1-.9.3-.1.5-.2.9-.3,1.3ZM62.3,24.1h.6c.6,0,1.1-.1,1.7-.3h.1c.1,0,.1-.1.2-.1.1-.1.2-.2.2-.4-.1-.1-.3-.3-.5-.6-.4.2-.8.3-1.2.3-.3,0-.5,0-.7-.1,0,.1-.1.2-.3.3-.1.1-.2.2-.3.2-.1.1-.3.2-.4.2l.1.1c.2.2.4.3.5.4ZM61.7,24l-.1-.1c-.1-.1-.1-.2-.2-.3h-.1c-.2,0-.5-.1-.9-.4-.2-.2-.5-.4-.7-.7h-.4c.6.7,1.4,1.2,2.4,1.5ZM59,16.4c0-.1.1-.1,0,0,.2-.1.4-.1.6-.1h0c.5-.8,1-1.1,1.3-1.3v-.1c-.7.3-1.4.8-1.9,1.5ZM67.6,19.3c0-.3,0-.5-.1-.8h0c-.1.1-.1.2-.2.2v.1c0,.3-.1,1-.4,1.7.1.1.2.4.3.8.3-.6.4-1.3.4-2ZM62.7,14.5h-.5c-.3,0-.5.1-.8.2h0v.1h.9l.3.1h.1q.1,0,.2.1h0c.1-.1.2-.2.4-.2.2-.1.3-.1.5-.1,0-.1-.1-.1-.2-.2h-.3c-.3,0-.5,0-.6,0h0ZM61.1,15.3h0c-.2.1-.3.2-.4.2-.2.2-.5.5-.8,1,0,.1,0,.2.1.3v.1c0,.1.1.3.2.4v.1h.2c.3,0,.7,0,1.2.1.6-.6,1-.9,1.3-1l-.4-1.1c-.2-.1-.4-.2-.6-.2h-.3c-.2-.1-.4,0-.5.1h0Z"/></svg>