<?xml version="1.0" encoding="utf-8"?>
<!-- Generator: Adobe Illustrator 25.0.0, SVG Export Plug-In . SVG Version: 6.00 Build 0)  -->
<svg version="1.1" id="Layer_1" xmlns="http://www.w3.org/2000/svg" xmlns:xlink="http://www.w3.org/1999/xlink" x="0px" y="0px"
	 viewBox="0 0 80 50" style="enable-background:new 0 0 80 50;" xml:space="preserve">
<style type="text/css">
	.st0{fill:url(#One_Color_Outline_1_);}
</style>
<linearGradient id="One_Color_Outline_1_" gradientUnits="userSpaceOnUse" x1="19.1543" y1="6.2764" x2="59.5622" y2="46.6843">
	<stop  offset="0" style="stop-color:#FDCD87"/>
	<stop  offset="0.4947" style="stop-color:#FFDDB1"/>
	<stop  offset="1" style="stop-color:#AD854F"/>
</linearGradient>
<path id="One_Color_Outline_2_" class="st0" d="M19.9,9c-2.4,0-4.5,0.8-5.7,2.3c-1.6,1.9-1.8,4.6-1.8,7.3l0,11.4
	c0,3.3,0,6.4,1.8,8.7c1.2,1.6,3.8,2.6,6.6,2.5c2.9-0.1,5.5-1.3,7.2-3.1V28h-6v3.2c0,0.1,0,0.3,0,0.4c0,1.1,0,2.4-0.6,3.1
	c-0.3,0.3-0.6,0.4-1,0.4s-0.8-0.1-1-0.4c-0.7-0.7-0.7-2-0.6-3.1c0-0.1,0-0.3,0-0.4V18.9c0-0.1,0-0.3,0-0.4c0-1.1,0-2.4,0.6-3.1
	c0.3-0.3,0.6-0.4,1-0.4s0.8,0.1,1,0.4c0.7,0.7,0.7,2,0.6,3.1c0,0.1,0,0.3,0,0.4v1.5h6v-8.2c-2.1-1.9-4.8-3.1-7.4-3.2
	C20.3,9,20.1,9,19.9,9z M30.5,38c1.9,2,4.5,3.1,7.8,3.1c3,0,5.1-0.9,6.5-2.8c1.2-1.7,1.7-4.1,1.7-7.4v-0.1c0-1.5-0.2-3-0.5-4.3l0,0
	c-0.3-1.2-0.8-2-1.6-2.8c-1.4-1.3-3.6-2.1-5.2-2.7c-1.1-0.4-1.8-0.9-2.2-1.4c-0.4-0.6-0.5-1.3-0.5-2c0-1.5,0.7-2.5,1.8-2.5
	c1.8,0,1.8,2.4,1.8,3.8V19h5.7v-6.9C43.5,9.9,41.1,9,37.9,9c-2.6,0-4.3,0.6-5.5,1.8c-1.8,1.9-2.1,3.6-2.2,6.8v0.7
	c0,6.5,2,7.9,6.4,9.4c0.1,0,0.2,0.1,0.4,0.1c0.9,0.3,1.7,0.6,2.3,1.2c0.7,0.7,1,1.7,1,3.2c0,1.4-0.6,2.8-1.8,2.8
	c-0.7,0-1.3-0.5-1.6-1.3c-0.2-0.7-0.2-1.9-0.2-3.6l0-0.1h-6V38z M48.3,40.5h17.5V25.9h-5.4v4.8c0,1,0,1.9-0.2,2.6
	c-0.3,0.8-0.9,1.2-1.9,1.2h-3V17.9c0-0.1,0-0.2,0-0.3c0-1.1,0-2.2,0.8-3v-5h-7.7v5c0.8,0.8,0.8,1.9,0.8,3c0,0.1,0,0.2,0,0.3v14.2
	c0,0.1,0,0.2,0,0.3c0,1.1,0,2.2-0.8,3V40.5z M58,18.9c0,0.1,0,0.1,0.1,0.2c0,0,0,0.1-0.1,0.2C58,19.1,58,19,58,18.9z M63.9,14.6
	c0.9,0.2,1.7,0.6,2.3,1.3c-0.1,0-0.1,0-0.1,0h0c0,0-0.1,0-0.1,0c-0.7-0.7-1.7-1-2-1.1C63.9,14.7,63.9,14.7,63.9,14.6z M67.4,18.2
	C67.4,18.2,67.4,18.1,67.4,18.2c0-0.1,0-0.2,0-0.4c0-0.1-0.1-0.2-0.1-0.2l0,0c-0.1-0.3-0.2-0.6-0.4-0.8c-0.1-0.2-0.2-0.4-0.4-0.5
	c0,0,0,0,0,0c0,0-0.1,0-0.1,0c-0.1,0-0.1,0-0.2,0c0.1,0.1,0.1,0.3,0.1,0.6c0,0.1,0,0.2,0,0.3c0.2,0.1,0.7,0.5,1,1.3
	C67.3,18.3,67.4,18.3,67.4,18.2z M63.8,15C63.8,15,63.8,15,63.8,15c-0.1,0-0.3,0-0.4,0.1c-0.2,0.1-0.4,0.2-0.5,0.2l0.4,1.1
	c1,0.3,1.5,0.8,1.7,0.9L66,17c0-0.1,0-0.2,0-0.3c0-0.3-0.2-0.6-0.2-0.6h0v0L65.7,16C65,15.3,64,15.1,63.8,15L63.8,15
	C63.8,15,63.8,15,63.8,15z M61.9,17.7c0,0,0,0.1,0,0.1c0,0.1,0.1,0.3,0.2,0.5c0.1,0.3,0.4,0.7,0.6,1c0.1,0,0.3,0,0.5,0
	c0.3,0,0.8,0,1.3-0.1l0,0c0,0,0.1-0.1,0.1-0.2c0.1-0.3,0.1-0.5,0.1-0.8c0-0.2,0-0.4-0.1-0.5l0,0c0,0,0,0-0.1-0.1
	c-0.1-0.1-0.2-0.2-0.3-0.2c-0.3-0.2-0.8-0.4-1.3-0.6c0,0,0,0-0.1,0c-0.1,0-0.2,0.1-0.3,0.2C62.5,17.1,62.2,17.4,61.9,17.7z
	 M60.7,21.2L60.7,21.2L60.7,21.2L60.7,21.2z M62.1,21.5L62.1,21.5c0.1,0.3,0.3,0.6,0.5,0.9c0,0,0.1,0.1,0.1,0.1l0,0c0,0,0.1,0,0.1,0
	c0.1,0,0.3,0.1,0.5,0.1c0.4,0,0.8-0.1,1.2-0.3l0,0c0,0,0,0,0.1-0.1c0.1-0.1,0.2-0.2,0.3-0.3c0.2-0.3,0.4-0.7,0.4-1.2
	c-0.2-0.6-0.6-1-0.7-1.1c-0.8,0.1-1.6,0.1-1.8,0.1l-1,1.4c0,0,0,0.1,0,0.1C61.9,21.2,62,21.3,62.1,21.5z M61.6,20.8l0.9-1.4
	c-0.2-0.2-0.4-0.6-0.6-1c-0.1-0.3-0.2-0.5-0.3-0.6c-0.4,0-0.9-0.1-1.1-0.1c-0.1,0-0.2,0-0.3,0c-0.2,0.3-0.4,0.5-0.6,0.8v0
	c-0.3,0.4-0.4,0.7-0.4,0.8c0,0,0,0.1,0,0.1c0,0.1,0.1,0.3,0.1,0.4c0.1,0.4,0.3,0.7,0.5,0.9l0,0c0,0,0.1,0,0.2,0.1c0,0,0.1,0,0.1,0
	c0.2,0,0.3,0.1,0.5,0.1l0,0C61,21,61.3,20.9,61.6,20.8z M66.2,22.7c0.1-0.1,0.1-0.1,0.2-0.2c0.2-0.2,0.3-0.4,0.3-0.4
	c0,0,0-0.1,0.1-0.1c0.1-0.2,0.1-0.3,0.1-0.5c0-0.3-0.1-0.6-0.2-0.7c-0.2,0.1-0.4,0.1-0.6,0.1c0,0,0,0,0,0c-0.2,0-0.4,0-0.5-0.1
	c-0.1,0.8-0.6,1.4-0.8,1.6c0.2,0.3,0.4,0.5,0.5,0.6c0.3,0,0.7-0.2,0.9-0.3C66.2,22.7,66.2,22.7,66.2,22.7z M58.9,22
	c0,0,0.1,0.1,0.1,0.1c0.1,0,0.2,0.1,0.4,0.1c0,0,0,0,0,0c0,0,0.1,0,0.1,0c0-0.1,0-0.4,0-0.6c0-0.2,0-0.5,0.1-0.7
	c-0.2-0.2-0.3-0.5-0.5-0.9c-0.1-0.2-0.1-0.4-0.2-0.5l-0.6-0.2c0,0.1-0.1,0.1-0.1,0.2c-0.1,0.2-0.1,0.3-0.2,0.4
	c0,0.4,0.1,0.7,0.3,1.1C58.5,21.4,58.6,21.7,58.9,22z M65.5,23.3c-0.1,0-0.1,0-0.2,0c0,0,0,0.1-0.1,0.1
	C65.3,23.4,65.4,23.3,65.5,23.3z M62.1,23C62.1,23,62.2,22.9,62.1,23c0.1-0.2,0.2-0.3,0.3-0.4l0,0c0,0,0,0,0,0
	c-0.1-0.1-0.2-0.2-0.2-0.3c-0.1-0.2-0.2-0.4-0.3-0.6c-0.1-0.2-0.2-0.4-0.2-0.5c-0.3,0.1-0.6,0.1-0.9,0.1h0c0,0-0.1,0-0.1,0l0,0
	c-0.3,0-0.6-0.1-0.7-0.2c0,0,0,0,0,0.1c0,0.1-0.1,0.3-0.1,0.5c0,0.1,0,0.1,0,0.2c0,0.1,0,0.1,0,0.2c0,0,0,0.1,0,0.1l0,0
	c0,0,0,0.1,0,0.1c0,0,0,0.1,0,0.1c0.1,0.1,0.1,0.2,0.2,0.2l0,0c0,0,0,0,0,0l0,0l0,0c0.7,0.7,1.3,0.8,1.4,0.8l0,0l0,0l0,0l0,0
	c0,0,0.1,0,0.1,0c0,0,0,0,0,0C61.7,23.3,61.9,23.2,62.1,23C62,23.1,62.1,23,62.1,23z M67.1,18.7C67.1,18.7,67.1,18.7,67.1,18.7
	c-0.2-1-0.8-1.3-1-1.4l-1,0.3c0,0,0,0,0,0c0,0,0,0,0,0l0,0c0,0,0,0,0,0l0,0.1c0,0,0,0,0,0c0,0,0,0,0,0.1l0,0.1c0,0,0,0,0,0.1
	c0,0.5-0.2,0.9-0.3,1.2c0.2,0.2,0.5,0.6,0.7,1.2c0,0,0.1,0,0.1,0c0.1,0,0.2,0.1,0.4,0.1c0.2,0,0.4,0,0.6-0.1
	C67,19.7,67.1,19.1,67.1,18.7C67.1,18.8,67.1,18.7,67.1,18.7z M58.2,18.1c0,0,0,0.1,0,0.2l0,0c0,0,0,0.1,0,0.1c0,0.1,0,0.2,0.1,0.3
	c0,0.1,0.1,0.2,0.1,0.2l0.6,0.2c0.1-0.3,0.3-0.8,1-1.6c-0.1-0.1-0.1-0.2-0.2-0.4c0,0,0-0.1-0.1-0.1c-0.1-0.2-0.1-0.4-0.2-0.5
	c0,0-0.1,0-0.1,0c-0.2,0-0.6,0.1-0.9,0.3C58.4,17.3,58.3,17.7,58.2,18.1z M62.3,24.1C62.3,24.1,62.3,24.1,62.3,24.1
	C62.3,24.1,62.3,24.1,62.3,24.1c0.1,0,0.1,0,0.2,0c0.1,0,0.2,0,0.4,0c0.6,0,1.1-0.1,1.7-0.3c0,0,0.1,0,0.1,0c0,0,0,0,0,0
	c0.1,0,0.1-0.1,0.2-0.1c0.1-0.1,0.2-0.2,0.2-0.4c-0.1-0.1-0.3-0.3-0.5-0.6c-0.4,0.2-0.8,0.3-1.2,0.3c-0.3,0-0.5,0-0.7-0.1
	c0,0.1-0.1,0.2-0.3,0.3c-0.1,0.1-0.2,0.2-0.3,0.2c-0.1,0.1-0.3,0.2-0.4,0.2c0,0,0.1,0.1,0.1,0.1C62,23.9,62.2,24,62.3,24.1z
	 M61.7,24c0,0-0.1-0.1-0.1-0.1c-0.1-0.1-0.1-0.2-0.2-0.3c0,0-0.1,0-0.1,0c-0.2,0-0.5-0.1-0.9-0.4c-0.2-0.2-0.5-0.4-0.7-0.7
	c-0.1,0-0.2,0-0.2,0h0c-0.1,0-0.1,0-0.2,0C59.9,23.2,60.7,23.7,61.7,24z M59,16.4C59,16.3,59.1,16.3,59,16.4
	c0.2-0.1,0.4-0.1,0.6-0.1h0c0.5-0.8,1-1.1,1.3-1.3c0,0,0-0.1,0-0.1C60.2,15.2,59.5,15.7,59,16.4z M67.6,19.3c0-0.3,0-0.5-0.1-0.8
	c0,0,0,0,0,0c-0.1,0.1-0.1,0.2-0.2,0.2c0,0,0,0.1,0,0.1c0,0.3-0.1,1-0.4,1.7c0.1,0.1,0.2,0.4,0.3,0.8C67.5,20.7,67.6,20,67.6,19.3z
	 M62.7,14.5c-0.2,0-0.4,0-0.5,0c-0.3,0-0.5,0.1-0.8,0.2l0,0c0,0,0,0,0,0l0,0c0,0,0,0,0,0l0,0c0,0,0,0.1,0,0.1c0.1,0,0.1,0,0.2,0
	c0.1,0,0.2,0,0.3,0l0,0c0,0,0,0,0,0l0.1,0c0,0,0,0,0.1,0l0,0l0.1,0l0,0c0,0,0,0,0,0l0,0c0,0,0,0,0.1,0l0,0l0.3,0.1l0.1,0
	c0.1,0,0.1,0,0.2,0.1l0,0c0.1-0.1,0.2-0.2,0.4-0.2c0.2-0.1,0.3-0.1,0.5-0.1c0-0.1-0.1-0.1-0.2-0.2c0,0-0.1,0-0.2,0c0,0-0.1,0-0.1,0
	C63,14.5,62.8,14.5,62.7,14.5C62.7,14.5,62.7,14.5,62.7,14.5z M61.1,15.3C61.1,15.3,61.1,15.3,61.1,15.3L61.1,15.3
	c-0.2,0.1-0.3,0.2-0.4,0.2c-0.2,0.2-0.5,0.5-0.8,1c0,0.1,0,0.2,0.1,0.3c0,0,0,0.1,0,0.1c0,0.1,0.1,0.3,0.2,0.4c0,0,0,0.1,0,0.1l0,0
	c0.1,0,0.1,0,0.2,0c0.3,0,0.7,0,1.2,0.1c0.6-0.6,1-0.9,1.3-1l-0.4-1.1c-0.2-0.1-0.4-0.2-0.6-0.2c-0.1,0-0.2,0-0.3,0c0,0,0,0,0,0
	C61.4,15.1,61.2,15.2,61.1,15.3L61.1,15.3z"/>
</svg>
