<svg xmlns="http://www.w3.org/2000/svg" viewBox="0 0 339.9 222.13"><rect width="339.9" height="222.13" style="fill:#eee"/><rect x="13.23" y="13.23" width="313.43" height="195.66" style="fill:#202020"/><path d="M274.14,129.65A27.36,27.36,0,1,1,246.78,157a27.38,27.38,0,0,1,27.36-27.36m0-13.32A40.68,40.68,0,1,0,314.81,157a40.68,40.68,0,0,0-40.67-40.68Z" style="fill:#eee"/><path d="M208.28,164.55a31.84,31.84,0,0,0,7.54-1.23c9.27-3.17,15-11.42,15-22.38,0-13.23-11.07-23.51-24.3-23.51H176.82v79.12h13.23V164.79h4.23l10.27,31.6h26.3V183H214.28Zm-18.23-12.42V130.2h16c6.55,0,11.41,4.52,11.41,10.74a11,11,0,0,1-11.41,11.19Z" style="fill:#eee"/><path d="M171.58,141.62c0-13.91-10.74-24.19-25.32-24.19h-30.9l25.71,79.12h14.07L145.23,166h1C160.84,166,171.58,155.75,171.58,141.62Zm-30.47,11.75-7.56-23.28h12.71c6.89,0,12,5,12,11.53a11.59,11.59,0,0,1-12,11.75Z" style="fill:#eee"/><path d="M107.75,119.12v-1.69h-80v30.46a50.41,50.41,0,0,0,3,17.39,56.39,56.39,0,0,0,6.86,12.88l-10,10,9.36,9.35,9.7-9.7A49.65,49.65,0,0,0,55,193.38a48.53,48.53,0,0,0,12.78,4.81,48.53,48.53,0,0,0,12.78-4.81,53.52,53.52,0,0,0,16.41-14,54.66,54.66,0,0,0,7.75-14.06,50.41,50.41,0,0,0,3.05-17.39C107.76,147.72,107.75,119.12,107.75,119.12ZM43.12,160.4A37.45,37.45,0,0,1,41,147.89V130.65H85.21l-38,38A47.4,47.4,0,0,1,43.12,160.4Zm49.3,0a41.21,41.21,0,0,1-5.89,10.81,40.22,40.22,0,0,1-12.24,10.51,39.57,39.57,0,0,1-6.52,2.79,40,40,0,0,1-6.53-2.79,35.28,35.28,0,0,1-5.07-3.33L94.54,140v7.87A37.45,37.45,0,0,1,92.42,160.4Z" style="fill:#eee"/><polygon points="252.82 25.58 252.82 25.58 252.82 25.58 229.6 48.8 229.6 25.58 216.28 25.58 216.28 62.12 186.64 91.76 157.53 91.76 157.53 82.12 181.25 58.41 171.83 48.98 157.53 63.28 157.53 60.9 157.53 56.76 157.53 38.18 190.85 38.18 190.85 25.58 144.36 25.58 144.36 104.37 192.87 104.37 216.28 80.96 216.28 104.37 229.6 104.37 229.6 67.64 259.06 38.18 275.27 38.18 275.27 104.37 288.44 104.37 288.44 38.18 310.89 38.18 310.89 25.58 252.82 25.58" style="fill:#eee"/><polygon points="118.77 25.58 118.77 83.65 99.9 25.58 90.27 25.58 64.66 104.37 78.68 104.37 95.08 53.89 111.48 104.37 132.05 104.37 132.05 25.58 118.77 25.58" style="fill:#eee"/><path d="M39.77,35.06l-.23,1.6c-.48,3.48-1.6,4.72-3.33,4.72-1.92,0-3.3-1.38-3.3-4.05a12.45,12.45,0,0,1,2.32-7,.46.46,0,0,0-.14-.63L31,27c-.31-.22-.49-.18-.67.08a17.13,17.13,0,0,0-3.16,10.29c0,6.55,3.7,10.73,9.26,10.73,5.35,0,8.24-3.42,9.09-9.57l.22-1.6c.49-3.61,1.6-4.68,3.38-4.68,2.14,0,3.61,1.78,3.61,4.94a12.83,12.83,0,0,1-3.12,7.93.44.44,0,0,0,.05.67l3.87,3.38a.55.55,0,0,0,.76,0c2.27-2.36,4.14-7,4.14-11.67,0-7.84-4-11.89-9.53-11.89s-8.33,3.3-9.17,9.53" style="fill:#eee"/><path d="M58,71.66V51.93a.42.42,0,0,0-.45-.44H52.59a.42.42,0,0,0-.44.44V65.29a.24.24,0,0,1-.27.27H28.15a.43.43,0,0,0-.45.45v5.65a.43.43,0,0,0,.45.45H57.53a.43.43,0,0,0,.45-.45" style="fill:#eee"/><path d="M53.26,92.66,40.48,98.27v.17H57.53a.43.43,0,0,1,.45.45v5a.43.43,0,0,1-.45.45H28.15a.43.43,0,0,1-.45-.45v-5.3a.68.68,0,0,1,.45-.71l17.27-7.66v-.18L28.15,82.55a.68.68,0,0,1-.45-.71V76.63a.43.43,0,0,1,.45-.45H57.53a.43.43,0,0,1,.45.45v5a.42.42,0,0,1-.45.44H40.48v.18l12.78,5.61a.86.86,0,0,1,.58.85v3.07a.86.86,0,0,1-.58.85" style="fill:#eee"/></svg>